<svg viewBox="0 0 330 200" xmlns="http://www.w3.org/2000/svg"><g><g><g><g><g><line x1="41.0620002746582" y1="177.92999935150146" x2="36.0620002746582" y2="177.92999935150146" style="visibility: inherit;" fill="rgb(0, 0, 0)" stroke="rgb(204, 204, 204)" stroke-width="1px"></line><line x1="41.0620002746582" y1="163.102499405543" x2="36.0620002746582" y2="163.102499405543" style="visibility: inherit;" fill="rgb(0, 0, 0)" stroke="rgb(204, 204, 204)" stroke-width="1px"></line><line x1="41.0620002746582" y1="148.27499945958456" x2="36.0620002746582" y2="148.27499945958456" style="visibility: inherit;" fill="rgb(0, 0, 0)" stroke="rgb(204, 204, 204)" stroke-width="1px"></line><line x1="41.0620002746582" y1="133.4474995136261" x2="36.0620002746582" y2="133.4474995136261" style="visibility: inherit;" fill="rgb(0, 0, 0)" stroke="rgb(204, 204, 204)" stroke-width="1px"></line><line x1="41.0620002746582" y1="118.61999956766765" x2="36.0620002746582" y2="118.61999956766765" style="visibility: inherit;" fill="rgb(0, 0, 0)" stroke="rgb(204, 204, 204)" stroke-width="1px"></line><line x1="41.0620002746582" y1="103.79249962170918" x2="36.0620002746582" y2="103.79249962170918" style="visibility: inherit;" fill="rgb(0, 0, 0)" stroke="rgb(204, 204, 204)" stroke-width="1px"></line><line x1="41.0620002746582" y1="88.96499967575073" x2="36.0620002746582" y2="88.96499967575073" style="visibility: inherit;" fill="rgb(0, 0, 0)" stroke="rgb(204, 204, 204)" stroke-width="1px"></line><line x1="41.0620002746582" y1="74.13749972979227" x2="36.0620002746582" y2="74.13749972979227" style="visibility: inherit;" fill="rgb(0, 0, 0)" stroke="rgb(204, 204, 204)" stroke-width="1px"></line><line x1="41.0620002746582" y1="59.30999978383383" x2="36.0620002746582" y2="59.30999978383383" style="visibility: inherit;" fill="rgb(0, 0, 0)" stroke="rgb(204, 204, 204)" stroke-width="1px"></line><line x1="41.0620002746582" y1="44.482499837875366" x2="36.0620002746582" y2="44.482499837875366" style="visibility: inherit;" fill="rgb(0, 0, 0)" stroke="rgb(204, 204, 204)" stroke-width="1px"></line><line x1="41.0620002746582" y1="29.6549998919169" x2="36.0620002746582" y2="29.6549998919169" style="visibility: inherit;" fill="rgb(0, 0, 0)" stroke="rgb(204, 204, 204)" stroke-width="1px"></line><line x1="41.0620002746582" y1="14.827499945958465" x2="36.0620002746582" y2="14.827499945958465" style="visibility: inherit;" fill="rgb(0, 0, 0)" stroke="rgb(204, 204, 204)" stroke-width="1px"></line><line x1="41.0620002746582" y1="0" x2="36.0620002746582" y2="0" style="visibility: inherit;" fill="rgb(0, 0, 0)" stroke="rgb(204, 204, 204)" stroke-width="1px"></line></g><g transform="translate(31.062000274658203, 0)"><text style="text-anchor: end; visibility: hidden; font-family: &quot;Helvetica Neue&quot;, sans-serif; font-size: 12px; font-weight: 200;" x="0" y="177.92999935150146" dx="0em" dy="0.3em" fill="rgb(50, 49, 63)" stroke="none" stroke-width="1px">-10</text><text style="text-anchor: end; visibility: inherit; font-family: &quot;Helvetica Neue&quot;, sans-serif; font-size: 12px; font-weight: 200;" x="0" y="163.102499405543" dx="0em" dy="0.3em" fill="rgb(50, 49, 63)" stroke="none" stroke-width="1px">0</text><text style="text-anchor: end; visibility: hidden; font-family: &quot;Helvetica Neue&quot;, sans-serif; font-size: 12px; font-weight: 200;" x="0" y="148.27499945958456" dx="0em" dy="0.3em" fill="rgb(50, 49, 63)" stroke="none" stroke-width="1px">10</text><text style="text-anchor: end; visibility: inherit; font-family: &quot;Helvetica Neue&quot;, sans-serif; font-size: 12px; font-weight: 200;" x="0" y="133.4474995136261" dx="0em" dy="0.3em" fill="rgb(50, 49, 63)" stroke="none" stroke-width="1px">20</text><text style="text-anchor: end; visibility: hidden; font-family: &quot;Helvetica Neue&quot;, sans-serif; font-size: 12px; font-weight: 200;" x="0" y="118.61999956766765" dx="0em" dy="0.3em" fill="rgb(50, 49, 63)" stroke="none" stroke-width="1px">30</text><text style="text-anchor: end; visibility: inherit; font-family: &quot;Helvetica Neue&quot;, sans-serif; font-size: 12px; font-weight: 200;" x="0" y="103.79249962170918" dx="0em" dy="0.3em" fill="rgb(50, 49, 63)" stroke="none" stroke-width="1px">40</text><text style="text-anchor: end; visibility: hidden; font-family: &quot;Helvetica Neue&quot;, sans-serif; font-size: 12px; font-weight: 200;" x="0" y="88.96499967575073" dx="0em" dy="0.3em" fill="rgb(50, 49, 63)" stroke="none" stroke-width="1px">50</text><text style="text-anchor: end; visibility: inherit; font-family: &quot;Helvetica Neue&quot;, sans-serif; font-size: 12px; font-weight: 200;" x="0" y="74.13749972979227" dx="0em" dy="0.3em" fill="rgb(50, 49, 63)" stroke="none" stroke-width="1px">60</text><text style="text-anchor: end; visibility: hidden; font-family: &quot;Helvetica Neue&quot;, sans-serif; font-size: 12px; font-weight: 200;" x="0" y="59.30999978383383" dx="0em" dy="0.3em" fill="rgb(50, 49, 63)" stroke="none" stroke-width="1px">70</text><text style="text-anchor: end; visibility: inherit; font-family: &quot;Helvetica Neue&quot;, sans-serif; font-size: 12px; font-weight: 200;" x="0" y="44.482499837875366" dx="0em" dy="0.3em" fill="rgb(50, 49, 63)" stroke="none" stroke-width="1px">80</text><text style="text-anchor: end; visibility: hidden; font-family: &quot;Helvetica Neue&quot;, sans-serif; font-size: 12px; font-weight: 200;" x="0" y="29.6549998919169" dx="0em" dy="0.3em" fill="rgb(50, 49, 63)" stroke="none" stroke-width="1px">90</text><text style="text-anchor: end; visibility: inherit; font-family: &quot;Helvetica Neue&quot;, sans-serif; font-size: 12px; font-weight: 200;" x="0" y="14.827499945958465" dx="0em" dy="0.3em" fill="rgb(50, 49, 63)" stroke="none" stroke-width="1px">100</text><text style="text-anchor: end; visibility: hidden; font-family: &quot;Helvetica Neue&quot;, sans-serif; font-size: 12px; font-weight: 200;" x="0" y="0" dx="0em" dy="0.3em" fill="rgb(50, 49, 63)" stroke="none" stroke-width="1px">110</text></g><line x1="41.0620002746582" y1="0" x2="41.0620002746582" y2="177.92999935150146" fill="rgb(0, 0, 0)" stroke="rgb(204, 204, 204)" stroke-width="1px"></line></g></g><g transform="translate(41, 0)" clip-path="url(#clip_0)"><clipPath id="clip_0"><rect width="288" height="177"></rect></clipPath><g><g><g><line x1="0" y1="0" x2="0" y2="177.92999935150146" fill="rgb(0, 0, 0)" stroke="rgb(60, 60, 60)" stroke-width="1px" opacity="0.25"></line><line x1="24.07816664377848" y1="0" x2="24.07816664377848" y2="177.92999935150146" fill="rgb(0, 0, 0)" stroke="rgb(60, 60, 60)" stroke-width="1px" opacity="0.25"></line><line x1="48.15633328755696" y1="0" x2="48.15633328755696" y2="177.92999935150146" fill="rgb(0, 0, 0)" stroke="rgb(60, 60, 60)" stroke-width="1px" opacity="0.25"></line><line x1="72.23449993133545" y1="0" x2="72.23449993133545" y2="177.92999935150146" fill="rgb(0, 0, 0)" stroke="rgb(60, 60, 60)" stroke-width="1px" opacity="0.25"></line><line x1="96.31266657511392" y1="0" x2="96.31266657511392" y2="177.92999935150146" fill="rgb(0, 0, 0)" stroke="rgb(60, 60, 60)" stroke-width="1px" opacity="0.25"></line><line x1="120.39083321889242" y1="0" x2="120.39083321889242" y2="177.92999935150146" fill="rgb(0, 0, 0)" stroke="rgb(60, 60, 60)" stroke-width="1px" opacity="0.25"></line><line x1="144.4689998626709" y1="0" x2="144.4689998626709" y2="177.92999935150146" fill="rgb(0, 0, 0)" stroke="rgb(60, 60, 60)" stroke-width="1px" opacity="0.25"></line><line x1="168.5471665064494" y1="0" x2="168.5471665064494" y2="177.92999935150146" fill="rgb(0, 0, 0)" stroke="rgb(60, 60, 60)" stroke-width="1px" opacity="0.25"></line><line x1="192.62533315022785" y1="0" x2="192.62533315022785" y2="177.92999935150146" fill="rgb(0, 0, 0)" stroke="rgb(60, 60, 60)" stroke-width="1px" opacity="0.25"></line><line x1="216.70349979400635" y1="0" x2="216.70349979400635" y2="177.92999935150146" fill="rgb(0, 0, 0)" stroke="rgb(60, 60, 60)" stroke-width="1px" opacity="0.25"></line><line x1="240.78166643778485" y1="0" x2="240.78166643778485" y2="177.92999935150146" fill="rgb(0, 0, 0)" stroke="rgb(60, 60, 60)" stroke-width="1px" opacity="0.25"></line><line x1="264.8598330815633" y1="0" x2="264.8598330815633" y2="177.92999935150146" fill="rgb(0, 0, 0)" stroke="rgb(60, 60, 60)" stroke-width="1px" opacity="0.25"></line><line x1="288.9379997253418" y1="0" x2="288.9379997253418" y2="177.92999935150146" fill="rgb(0, 0, 0)" stroke="rgb(60, 60, 60)" stroke-width="1px" opacity="0.25"></line></g><g><line x1="0" y1="177.92999935150146" x2="288.9379997253418" y2="177.92999935150146" fill="rgb(0, 0, 0)" stroke="rgb(60, 60, 60)" stroke-width="1px" opacity="0.25"></line><line x1="0" y1="163.102499405543" x2="288.9379997253418" y2="163.102499405543" fill="rgb(0, 0, 0)" stroke="rgb(60, 60, 60)" stroke-width="1px" opacity="0.25"></line><line x1="0" y1="148.27499945958456" x2="288.9379997253418" y2="148.27499945958456" fill="rgb(0, 0, 0)" stroke="rgb(60, 60, 60)" stroke-width="1px" opacity="0.25"></line><line x1="0" y1="133.4474995136261" x2="288.9379997253418" y2="133.4474995136261" fill="rgb(0, 0, 0)" stroke="rgb(60, 60, 60)" stroke-width="1px" opacity="0.25"></line><line x1="0" y1="118.61999956766765" x2="288.9379997253418" y2="118.61999956766765" fill="rgb(0, 0, 0)" stroke="rgb(60, 60, 60)" stroke-width="1px" opacity="0.25"></line><line x1="0" y1="103.79249962170918" x2="288.9379997253418" y2="103.79249962170918" fill="rgb(0, 0, 0)" stroke="rgb(60, 60, 60)" stroke-width="1px" opacity="0.25"></line><line x1="0" y1="88.96499967575073" x2="288.9379997253418" y2="88.96499967575073" fill="rgb(0, 0, 0)" stroke="rgb(60, 60, 60)" stroke-width="1px" opacity="0.25"></line><line x1="0" y1="74.13749972979227" x2="288.9379997253418" y2="74.13749972979227" fill="rgb(0, 0, 0)" stroke="rgb(60, 60, 60)" stroke-width="1px" opacity="0.25"></line><line x1="0" y1="59.30999978383383" x2="288.9379997253418" y2="59.30999978383383" fill="rgb(0, 0, 0)" stroke="rgb(60, 60, 60)" stroke-width="1px" opacity="0.25"></line><line x1="0" y1="44.482499837875366" x2="288.9379997253418" y2="44.482499837875366" fill="rgb(0, 0, 0)" stroke="rgb(60, 60, 60)" stroke-width="1px" opacity="0.25"></line><line x1="0" y1="29.6549998919169" x2="288.9379997253418" y2="29.6549998919169" fill="rgb(0, 0, 0)" stroke="rgb(60, 60, 60)" stroke-width="1px" opacity="0.25"></line><line x1="0" y1="14.827499945958465" x2="288.9379997253418" y2="14.827499945958465" fill="rgb(0, 0, 0)" stroke="rgb(60, 60, 60)" stroke-width="1px" opacity="0.25"></line><line x1="0" y1="0" x2="288.9379997253418" y2="0" fill="rgb(0, 0, 0)" stroke="rgb(60, 60, 60)" stroke-width="1px" opacity="0.25"></line></g></g></g><g><g><line x1="0" y1="163.102499405543" x2="288.9379997253418" y2="163.102499405543" fill="rgb(0, 0, 0)" stroke="rgb(153, 153, 153)" stroke-width="1.5px"></line></g></g><g><g><line x1="24.07816664377848" y1="0" x2="24.07816664377848" y2="177.92999935150146" fill="rgb(0, 0, 0)" stroke="rgb(153, 153, 153)" stroke-width="1.5px"></line></g></g><g><g><g><g><g><path style="fill: none;" stroke="rgb(51, 187, 238)" stroke-width="2px" d="M24.07816664377848,133.1192875669044L24.318948310216268,133.1192875669044L24.559729976654054,133.1192875669044L24.800511643091838,133.1192875669044L25.041293309529625,133.26891214578868L25.282074975967404,116.4021501766612L25.52285664240519,116.4021501766612L25.763638308842978,116.4021501766612L26.00441997528076,116.4021501766612L26.24520164171855,116.4021501766612L26.485983308156328,116.4021501766612L26.726764974594115,116.4021501766612L26.967546641031902,116.4021501766612L27.208328307469685,116.4021501766612L27.449109973907472,116.4021501766612L27.68989164034526,116.4021501766612L27.93067330678304,116.4021501766612L28.171454973220825,116.4021501766612L28.41223663965861,116.4021501766612L28.653018306096396,116.07755539692229L28.893799972534183,112.53076620954329L29.134581638971962,112.53076620954329L29.37536330540975,112.11466474106625L29.616144971847532,112.11466474106625L29.85692663828532,104.81142643112113L30.097708304723106,104.81142643112113L30.338489971160886,104.81142643112113L30.579271637598673,104.81142643112113L30.82005330403646,104.81142643112113L31.060834970474243,104.12820326142347L31.30161663691203,104.12820326142347L31.542398303349813,104.12820326142347L31.783179969787597,104.12820326142347L32.02396163622539,104.12820326142347L32.26474330266316,104.12820326142347L32.505524969100954,103.27979519013667L32.74630663553874,103.27979519013667L32.98708830197652,103.27979519013667L33.22786996841431,103.27979519013667L33.468651634852094,103.27979519013667L33.70943330128988,103.27979519013667L33.95021496772766,103.27979519013667L34.190996634165444,103.27979519013667L34.431778300603234,103.27979519013667L34.67255996704102,103.27979519013667L34.9133416334788,103.27979519013667L35.154123299916584,103.27979519013667L35.39490496635437,103.27979519013667L35.63568663279216,103.27979519013667L35.87646829922994,103.27979519013667L36.117249965667725,103.27979519013667L36.35803163210551,103.27979519013667L36.5988132985433,103.27979519013667L36.83959496498108,103.27979519013667L37.080376631418865,103.27979519013667L37.321158297856655,103.27979519013667L37.56193996429443,103.27979519013667L37.802721630732215,103.27979519013667L38.04350329717,103.27979519013667L38.28428496360779,103.27979519013667L38.52506663004557,103.27979519013667L38.765848296483355,103.27979519013667L39.006629962921146,103.27979519013667L39.24741162935893,103.27979519013667L39.48819329579671,103.27979519013667L39.7289749622345,103.27979519013667L39.969756628672286,103.27979519013667L40.21053829511006,103.28998773885135L40.45131996154785,103.28998773885135L40.692101627985636,98.44429057385705L40.93288329442342,98.44429057385705L41.1736649608612,98.44429057385705L41.41444662729899,98.44429057385705L41.655228293736776,98.44429057385705L41.89600996017456,98.44429057385705L42.13679162661235,98.44429057385705L42.37757329305013,98.44429057385705L42.61835495948791,98.44429057385705L42.8591366259257,98.44429057385705L43.09991829236348,98.44429057385705L43.34069995880127,98.44429057385705L43.58148162523906,98.44429057385705L43.82226329167684,98.44429057385705L44.063044958114624,98.44429057385705L44.30382662455241,98.44429057385705L44.5446082909902,98.44429057385705L44.78538995742798,98.44429057385705L45.026171623865764,98.44429057385705L45.26695329030355,98.44429057385705L45.50773495674133,96.74543818403748L45.748516623179114,96.6200166661688L45.989298289616904,96.6200166661688L46.23007995605469,96.6200166661688L46.47086162249247,96.6200166661688L46.711643288930254,96.6200166661688L46.952424955368045,96.6200166661688L47.19320662180583,96.6200166661688L47.43398828824361,96.05050093643298L47.6747699546814,96.05050093643298L47.91555162111918,96.05050093643298L48.15633328755696,96.05050093643298L48.39711495399475,96.05050093643298L48.637896620432535,94.53495039244953L48.87867828687032,94.53495039244953L49.11945995330811,94.53495039244953L49.36024161974589,94.53495039244953L49.601023286183676,95.3699701380939L49.84180495262146,95.3699701380939L50.08258661905925,95.3699701380939L50.323368285497025,95.3699701380939L50.56414995193481,95.3699701380939L50.8049316183726,95.3699701380939L51.04571328481038,95.3699701380939L51.286494951248166,91.37108598404369L51.527276617685956,91.37108598404369L51.76805828412374,91.37108598404369L52.00883995056152,91.37108598404369L52.24962161699931,91.37108598404369L52.4904032834371,91.37108598404369L52.73118494987488,91.37108598404369L52.971966616312656,91.37108598404369L53.21274828275045,91.37108598404369L53.45352994918823,91.37108598404369L53.69431161562601,91.37108598404369L53.935093282063804,91.37108598404369L54.17587494850159,91.37108598404369L54.41665661493937,91.37108598404369L54.65743828137716,91.37108598404369L54.898219947814944,91.37108598404369L55.13900161425273,91.37108598404369L55.37978328069052,91.37108598404369L55.620564947128294,91.37108598404369L55.86134661356608,91.37108598404369L56.10212828000386,91.37108598404369L56.34290994644165,91.37108598404369L56.583691612879434,91.37108598404369L56.82447327931722,91.37108598404369L57.06525494575501,91.37108598404369L57.30603661219279,91.37108598404369L57.546818278630575,91.37108598404369L57.787599945068365,91.37108598404369L58.02838161150615,91.37108598404369L58.269163277943925,91.37108598404369L58.509944944381715,91.37108598404369L58.7507266108195,91.37108598404369L58.99150827725728,91.37108598404369L59.232289943695065,91.37108598404369L59.473071610132855,91.37108598404369L59.71385327657064,88.93724449453933L59.95463494300842,88.93724449453933L60.19541660944621,88.93724449453933L60.436198275883996,88.93724449453933L60.67697994232177,88.93724449453933L60.91776160875956,88.93724449453933L61.158543275197346,88.93724449453933L61.39932494163513,88.93724449453933L61.64010660807292,88.93724449453933L61.8808882745107,88.93724449453933L62.121669940948486,88.93724449453933L62.36245160738627,88.93724449453933L62.60323327382406,88.93724449453933L62.84401494026184,88.93724449453933L63.084796606699626,88.93724449453933L63.32557827313741,88.93724449453933L63.56635993957519,88.93724449453933L63.807141606012976,88.93724449453933L64.04792327245077,88.93724449453933L64.28870493888856,88.93724449453933L64.52948660532633,88.93724449453933L64.77026827176411,88.93724449453933L65.01104993820191,88.93724449453933L65.25183160463969,88.93724449453933L65.49261327107747,88.93724449453933L65.73339493751526,88.93724449453933L65.97417660395304,86.12752307590871L66.21495827039082,86.12752307590871L66.45573993682862,86.12752307590871L66.6965216032664,86.12752307590871L66.93730326970419,86.12752307590871L67.17808493614197,86.12752307590871L67.41886660257975,86.12752307590871L67.65964826901754,86.12752307590871L67.90042993545532,86.12752307590871L68.1412116018931,86.12752307590871L68.38199326833089,86.12752307590871L68.62277493476867,84.1434659780756L68.86355660120647,84.1434659780756L69.10433826764425,84.1434659780756L69.34511993408204,84.1434659780756L69.58590160051982,84.1434659780756L69.8266832669576,84.1434659780756L70.06746493339539,82.21024153024182L70.30824659983317,82.21024153024182L70.54902826627095,82.21024153024182L70.78980993270874,82.21024153024182L71.03059159914652,82.21024153024182L71.27137326558432,82.21024153024182L71.5121549320221,82.21024153024182L71.75293659845988,82.21024153024182L71.99371826489767,82.21024153024182L72.23449993133545,82.21024153024182L72.47528159777323,82.21024153024182L72.71606326421102,82.21024153024182L72.9568449306488,82.21024153024182L73.1976265970866,82.21024153024182L73.43840826352437,82.21024153024182L73.67918992996216,82.21024153024182L73.91997159639995,82.21024153024182L74.16075326283773,82.21024153024182L74.40153492927551,82.21024153024182L74.64231659571331,80.5920245313637L74.88309826215108,80.5920245313637L75.12387992858886,80.5920245313637L75.36466159502665,80.5920245313637L75.60544326146443,80.5920245313637L75.84622492790223,80.5920245313637L76.08700659434,80.5920245313637L76.3277882607778,80.5920245313637L76.56856992721558,80.5920245313637L76.80935159365336,80.5920245313637L77.05013326009114,80.5920245313637L77.29091492652894,80.5920245313637L77.53169659296671,80.5920245313637L77.7724782594045,80.5920245313637L78.01325992584229,80.5920245313637L78.25404159228006,80.5920245313637L78.49482325871786,80.5920245313637L78.73560492515564,80.5920245313637L78.97638659159342,77.17652521329148L79.21716825803121,77.17652521329148L79.457949924469,77.17652521329148L79.69873159090677,77.17652521329148L79.93951325734457,77.13396764585016L80.18029492378236,77.13396764585016L80.42107659022012,77.13396764585016L80.66185825665792,77.13396764585016L80.9026399230957,77.13396764585016L81.14342158953349,77.13396764585016L81.38420325597127,77.13396764585016L81.62498492240906,77.13396764585016L81.86576658884684,75.08549726013534L82.10654825528464,75.08549726013534L82.3473299217224,75.08549726013534L82.58811158816019,75.08549726013534L82.82889325459799,75.08549726013534L83.06967492103576,75.08549726013534L83.31045658747355,75.08549726013534L83.55123825391134,75.08549726013534L83.79201992034912,75.08549726013534L84.0328015867869,75.08549726013534L84.2735832532247,75.08549726013534L84.51436491966247,75.08549726013534L84.75514658610027,75.08549726013534L84.99592825253805,75.08549726013534L85.23670991897582,71.74446237260075L85.47749158541362,71.74446237260075L85.7182732518514,71.74446237260075L85.95905491828918,71.74446237260075L86.19983658472697,71.74446237260075L86.44061825116476,71.74446237260075L86.68139991760253,71.74446237260075L86.92218158404033,71.74446237260075L87.16296325047811,71.74446237260075L87.4037449169159,71.74446237260075L87.64452658335368,71.74446237260075L87.88530824979145,71.74446237260075L88.12608991622925,71.74446237260075L88.36687158266703,71.74446237260075L88.60765324910481,71.74446237260075L88.8484349155426,71.74446237260075L89.0892165819804,71.74446237260075L89.32999824841816,71.74446237260075L89.57077991485596,70.79794112151103L89.81156158129374,70.79794112151103L90.05234324773153,70.79794112151103L90.29312491416931,70.79794112151103L90.5339065806071,70.79794112151103L90.77468824704488,70.79794112151103L91.01546991348266,70.79794112151103L91.25625157992046,70.79794112151103L91.49703324635823,70.79794112151103L91.73781491279603,70.79794112151103L91.97859657923381,70.79794112151103L92.21937824567159,70.79794112151103L92.46015991210938,70.79794112151103L92.70094157854717,70.79794112151103L92.94172324498494,70.79794112151103L93.18250491142273,70.79794112151103L93.42328657786051,70.79794112151103L93.66406824429829,70.79794112151103L93.90484991073609,70.79794112151103L94.14563157717386,70.79794112151103L94.38641324361166,70.25228342200748L94.62719491004944,70.25228342200748L94.86797657648722,70.25228342200748L95.108758242925,70.25228342200748L95.3495399093628,70.26905418057518L95.59032157580057,70.26905418057518L95.83110324223836,70.26905418057518L96.07188490867615,70.26905418057518L96.31266657511392,70.26905418057518L96.55344824155172,70.26905418057518L96.7942299079895,70.26905418057518L97.03501157442729,70.26905418057518L97.27579324086507,70.20504248590035L97.51657490730287,70.20504248590035L97.75735657374064,70.20504248590035L97.99813824017843,70.20504248590035L98.23891990661622,70.20504248590035L98.47970157305399,70.20504248590035L98.72048323949178,70.20504248590035L98.96126490592957,70.20504248590035L99.20204657236735,70.20504248590035L99.44282823880513,70.20504248590035L99.68360990524292,70.20504248590035L99.9243915716807,70.20504248590035L100.1651732381185,70.20504248590035L100.40595490455627,70.20504248590035L100.64673657099405,70.20504248590035L100.88751823743185,70.20504248590035L101.12829990386962,70.3178336146015L101.36908157030742,70.3178336146015L101.6098632367452,70.3178336146015L101.85064490318298,68.51063024632552L102.09142656962077,68.3846261354948L102.33220823605856,68.3846261354948L102.57298990249633,68.3846261354948L102.81377156893413,68.3846261354948L103.05455323537191,68.3846261354948L103.29533490180968,68.3846261354948L103.53611656824748,68.3846261354948L103.77689823468526,68.3846261354948L104.01767990112305,68.3846261354948L104.25846156756083,68.3846261354948L104.49924323399863,68.3846261354948L104.7400249004364,68.3846261354948L104.9808065668742,68.3846261354948L105.22158823331198,68.3846261354948L105.46236989974976,68.3846261354948L105.70315156618754,68.3846261354948L105.94393323262531,67.09082857284272L106.18471489906311,67.09082857284272L106.4254965655009,66.37153554567917L106.66627823193868,66.37153554567917L106.90705989837646,66.37153554567917L107.14784156481426,66.37153554567917L107.38862323125203,66.37153554567917L107.62940489768982,66.37153554567917L107.87018656412761,66.37153554567917L108.11096823056539,66.37153554567917L108.35174989700317,66.37153554567917L108.59253156344096,66.37153554567917L108.83331322987874,66.37153554567917L109.07409489631652,66.37153554567917L109.31487656275432,66.37153554567917L109.55565822919209,66.37153554567917L109.79643989562989,66.37153554567917L110.03722156206767,66.37153554567917L110.27800322850545,66.37153554567917L110.51878489494324,66.37153554567917L110.75956656138104,66.37153554567917L111.0003482278188,65.6498782092133L111.24112989425659,65.6498782092133L111.48191156069437,65.50625490346235L111.72269322713215,65.50625490346235L111.96347489356995,65.50625490346235L112.20425656000772,64.71044422978811L112.44503822644552,64.71044422978811L112.6858198928833,64.71044422978811L112.92660155932109,64.71044422978811L113.16738322575887,64.71044422978811L113.40816489219667,64.71044422978811L113.64894655863444,64.71044422978811L113.88972822507222,64.71044422978811L114.13050989151002,64.71044422978811L114.37129155794779,64.71044422978811L114.61207322438558,64.71044422978811L114.85285489082337,64.71044422978811L115.09363655726115,64.71044422978811L115.33441822369893,64.71044422978811L115.57519989013673,64.71044422978811L115.8159815565745,64.71044422978811L116.0567632230123,64.71044422978811L116.29754488945008,64.71044422978811L116.53832655588785,64.71044422978811L116.77910822232565,64.71044422978811L117.01988988876343,64.71044422978811L117.26067155520121,64.71044422978811L117.501453221639,64.71044422978811L117.74223488807678,64.38493879503088L117.98301655451456,64.38493879503088L118.22379822095236,64.38493879503088L118.46457988739013,64.38493879503088L118.70536155382791,64.38493879503088L118.94614322026571,64.366985881812L119.18692488670348,63.634016060646175L119.42770655314128,63.634016060646175L119.66848821957906,63.634016060646175L119.90926988601684,63.634016060646175L120.15005155245463,63.634016060646175L120.39083321889242,63.634016060646175L120.6316148853302,63.634016060646175L120.87239655176799,63.634016060646175L121.11317821820577,63.634016060646175L121.35395988464354,63.634016060646175L121.59474155108134,63.634016060646175L121.83552321751912,63.634016060646175L122.07630488395691,63.634016060646175L122.31708655039469,61.89192735430326L122.55786821683249,61.89192735430326L122.79864988327026,61.89192735430326L123.03943154970806,60.80367763864986L123.28021321614584,60.621557947464865L123.52099488258362,60.621557947464865L123.7617765490214,58.183344182623955L124.00255821545917,58.183344182623955L124.24333988189697,58.183344182623955L124.48412154833476,58.183344182623955L124.72490321477254,58.183344182623955L124.96568488121032,58.183344182623955L125.20646654764812,58.183344182623955L125.44724821408589,58.183344182623955L125.68802988052369,58.183344182623955L125.92881154696147,58.183344182623955L126.16959321339925,57.79099327577454L126.41037487983704,57.79099327577454L126.65115654627482,57.79099327577454L126.8919382127126,57.79099327577454L127.13271987915039,57.79099327577454L127.37350154558818,57.79099327577454L127.61428321202595,57.79099327577454L127.85506487846375,57.79099327577454L128.09584654490155,57.79099327577454L128.3366282113393,57.79099327577454L128.57740987777711,57.79099327577454L128.8181915442149,57.79099327577454L129.05897321065265,57.79099327577454L129.29975487709046,57.79099327577454L129.54053654352822,57.79099327577454L129.78131820996603,57.79099327577454L130.02209987640381,57.79099327577454L130.2628815428416,57.79099327577454L130.50366320927938,57.79099327577454L130.74444487571716,57.79099327577454L130.98522654215495,57.79099327577454L131.22600820859273,57.79099327577454L131.4667898750305,57.79099327577454L131.7075715414683,57.79099327577454L131.94835320790608,57.739623282751936L132.18913487434386,57.56913282583852L132.42991654078165,57.55628184321935L132.67069820721943,57.55628184321935L132.91147987365724,57.55628184321935L133.152261540095,57.55628184321935L133.3930432065328,57.55628184321935L133.6338248729706,56.89826854567558L133.87460653940838,56.641656142741226L134.11538820584616,56.641656142741226L134.35616987228394,54.277199778144194L134.59695153872173,53.30391884449668L134.8377332051595,53.30391884449668L135.0785148715973,53.30391884449668L135.31929653803508,52.74488978807774L135.56007820447286,52.74488978807774L135.80085987091064,52.74488978807774L136.04164153734843,52.74488978807774L136.2824232037862,51.81377048490704L136.523204870224,51.78260458955859L136.76398653666178,51.78260458955859L137.00476820309956,50.99904533681445L137.24554986953734,50.99904533681445L137.48633153597513,50.506443190553796L137.72711320241294,50.506443190553796L137.9678948688507,50.47734747990545L138.2086765352885,50.31314676448521L138.4494582017263,50.31314676448521L138.69023986816407,49.82401755102745L138.93102153460185,49.20619751162272L139.17180320103964,49.175619865478694L139.41258486747742,48.672576295839946L139.6533665339152,48.672576295839946L139.894148200353,48.61921530551015L140.13492986679077,47.57003891201046L140.37571153322855,47.27154769071677L140.61649319966634,47.27154769071677L140.85727486610412,47.27154769071677L141.0980565325419,47.27154769071677L141.33883819897972,47.122302080069915L141.57961986541747,46.588409364654325L141.82040153185528,46.34633350455945L142.06118319829304,46.29768982034955L142.30196486473082,46.12857948656952L142.54274653116863,45.38633342794972L142.7835281976064,45.430553930641935L143.0243098640442,45.40540627715387L143.26509153048198,45.11493560751248L143.50587319691977,45.002218009961865L143.74665486335755,44.91637887605842L143.98743652979533,44.85871914154262L144.22821819623312,44.829894930527075L144.4689998626709,44.844465410820646L144.70978152910868,44.67796826100633L144.95056319554647,44.58928969344319L145.19134486198425,44.55037474607525L145.43212652842203,44.55037474607525L145.67290819485982,44.55037474607525L145.9136898612976,44.55037474607525L146.1544715277354,44.53091727239129L146.3952531941732,44.37314204828064L146.63603486061095,44.1757505027507L146.87681652704873,43.57552137705443L147.11759819348651,43.04108566237326L147.35837985992433,43.04108566237326L147.5991615263621,42.91306227302357L147.8399431927999,42.62719578465507L148.08072485923765,42.55573481880529L148.32150652567546,42.55573481880529L148.56228819211324,42.44759877755817L148.80306985855103,42.10392549237275L149.0438515249888,42.07689996642452L149.28463319142662,41.99098164512816L149.52541485786438,41.99098164512816L149.76619652430216,41.99098164512816L150.00697819073994,41.74554597707737L150.24775985717773,41.6125224694903L150.48854152361554,41.57852845296688L150.7293231900533,41.09943341343799L150.97010485649108,40.96078760095503L151.21088652292886,40.853726245754416L151.45166818936667,40.72779566607423L151.69244985580445,40.664830376234136L151.93323152224224,40.6333477313141L152.17401318868,40.392538869505614L152.41479485511778,39.91800276131082L152.6555765215556,39.91800276131082L152.89635818799337,39.91800276131082L153.13713985443115,39.50510838224625L153.37792152086894,39.50510838224625L153.61870318730672,39.319210321171454L153.8594848537445,39.164138780904125L154.1002665201823,38.866326308692436L154.34104818662007,38.79289697050487L154.58182985305788,38.30954843672879L154.82261151949567,38.20308664321729L155.06339318593342,38.20308664321729L155.3041748523712,38.11293745264314L155.544956518809,38.054203032080835L155.7857381852468,38.054203032080835L156.02651985168458,37.95243591971982L156.26730151812237,37.95243591971982L156.50808318456012,37.973952265619175L156.74886485099793,37.973952265619175L156.98964651743572,37.973952265619175L157.2304281838735,37.83991063440911L157.47120985031128,37.83991063440911L157.71199151674904,37.83991063440911L157.95277318318685,37.52217687664077L158.19355484962463,37.52217687664077L158.43433651606242,37.52217687664077L158.6751181825002,37.46922313576016L158.915899848938,37.46922313576016L159.15668151537577,37.442751921562206L159.39746318181355,37.35710509989863L159.63824484825133,37.35710509989863L159.87902651468914,37.35710509989863L160.11980818112693,37.314287345309225L160.3605898475647,37.29288412425686L160.60137151400247,36.87862093454356L160.84215318044025,36.49585170223503L161.08293484687806,36.37685567567593L161.32371651331584,36.37685567567593L161.56449817975363,36.37685567567593L161.8052798461914,36.37685567567593L162.0460615126292,36.37685567567593L162.28684317906698,36.37685567567593L162.52762484550476,36.29753253295968L162.76840651194254,36.29753253295968L163.00918817838033,36.29753253295968L163.2499698448181,36.29753253295968L163.4907515112559,36.29753253295968L163.73153317769368,36.29753253295968L163.97231484413146,36.222824884001L164.21309651056927,36.222824884001L164.45387817700706,36.222824884001L164.6946598434448,36.02314821656165L164.9354415098826,35.923315539084314L165.17622317632038,35.873393544103294L165.4170048427582,35.873393544103294L165.65778650919597,35.873393544103294L165.89856817563376,35.873393544103294L166.1393498420715,35.873393544103294L166.38013150850932,35.873393544103294L166.6209131749471,35.873393544103294L166.8616948413849,35.873393544103294L167.10247650782267,35.63122718413081L167.34325817426048,35.63122718413081L167.58403984069824,35.63122718413081L167.82482150713602,35.63122718413081L168.0656031735738,35.63122718413081L168.3063848400116,35.63122718413081L168.5471665064494,35.63122718413081L168.78794817288716,35.63122718413081L169.02872983932494,35.63122718413081L169.26951150576272,35.63122718413081L169.51029317220053,35.63122718413081L169.75107483863832,35.63122718413081L169.9918565050761,35.63122718413081L170.23263817151386,35.63122718413081L170.47341983795164,35.63122718413081L170.71420150438945,35.63122718413081L170.95498317082723,35.582549562466795L171.19576483726502,35.582549562466795L171.4365465037028,35.582549562466795L171.67732817014058,35.582549562466795L171.91810983657837,35.582549562466795L172.15889150301615,35.582549562466795L172.39967316945393,35.582549562466795L172.64045483589175,35.582549562466795L172.88123650232953,35.582549562466795L173.12201816876728,35.582549562466795L173.36279983520507,35.582549562466795L173.60358150164285,35.582549562466795L173.84436316808066,35.582549562466795L174.08514483451845,35.582549562466795L174.32592650095623,35.582549562466795L174.56670816739398,35.582549562466795L174.8074898338318,35.582549562466795L175.04827150026958,35.558216407877154L175.28905316670736,35.558216407877154L175.52983483314515,35.47364427226009L175.7706164995829,35.47364427226009L176.0113981660207,35.35895830237169L176.2521798324585,35.35895830237169L176.49296149889628,35.35895830237169L176.73374316533406,35.35895830237169L176.97452483177187,35.35895830237169L177.21530649820963,35.35895830237169L177.4560881646474,35.35895830237169L177.6968698310852,35.35895830237169L177.937651497523,35.35895830237169L178.1784331639608,35.35895830237169L178.41921483039857,35.35895830237169L178.65999649683633,35.35895830237169L178.9007781632741,35.374015219507356L179.14155982971192,35.374015219507356L179.3823414961497,35.16433831559323L179.6231231625875,35.16433831559323L179.86390482902527,35.13190542195838L180.10468649546306,34.97089482722356L180.34546816190084,34.97089482722356L180.58624982833862,34.97089482722356L180.8270314947764,34.97089482722356L181.0678131612142,34.97089482722356L181.30859482765197,34.97089482722356L181.54937649408976,34.97089482722356L181.79015816052754,34.97089482722356L182.03093982696532,34.97089482722356L182.27172149340313,34.97089482722356L182.51250315984092,34.97089482722356L182.75328482627867,34.97089482722356L182.99406649271646,34.890383873613786L183.23484815915424,34.890383873613786L183.47562982559205,34.890383873613786L183.71641149202983,34.890383873613786L183.95719315846762,34.85012274056655L184.19797482490537,34.85012274056655L184.43875649134318,34.85012274056655L184.67953815778097,34.85012274056655L184.92031982421875,34.85012274056655L185.16110149065653,34.85012274056655L185.40188315709435,34.82999783028529L185.6426648235321,34.82999783028529L185.88344648996988,34.82999783028529L186.12422815640767,34.82999783028529L186.36500982284545,34.82999783028529L186.60579148928326,34.82999783028529L186.84657315572102,34.82999783028529L187.0873548221588,34.82999783028529L187.32813648859658,34.82999783028529L187.5689181550344,34.82999783028529L187.80969982147218,34.82999783028529L188.05048148790996,34.82999783028529L188.29126315434772,34.82999783028529L188.5320448207855,34.82999783028529L188.7728264872233,34.82999783028529L189.0136081536611,34.82999783028529L189.25438982009888,34.82999783028529L189.49517148653666,34.82999783028529L189.73595315297445,34.82999783028529L189.97673481941223,34.82999783028529L190.21751648585,34.82999783028529L190.4582981522878,34.82999783028529L190.6990798187256,34.82999783028529L190.9398614851634,34.82999783028529L191.18064315160115,34.82999783028529L191.42142481803893,34.82999783028529L191.6622064844767,34.82999783028529L191.90298815091452,34.67514122722727L192.1437698173523,34.67514122722727L192.3845514837901,34.67514122722727L192.62533315022785,34.67514122722727L192.86611481666566,34.67514122722727L193.10689648310344,34.67514122722727L193.34767814954122,34.67514122722727L193.588459815979,34.67514122722727L193.82924148241676,34.67514122722727L194.07002314885457,34.67514122722727L194.31080481529236,34.67514122722727L194.55158648173014,34.67514122722727L194.79236814816792,34.67514122722727L195.03314981460574,34.67514122722727L195.2739314810435,34.67514122722727L195.51471314748127,34.67514122722727L195.75549481391906,34.67514122722727L195.99627648035687,34.67514122722727L196.23705814679465,34.67514122722727L196.47783981323244,34.67514122722727L196.7186214796702,34.67514122722727L196.95940314610797,34.67514122722727L197.20018481254579,34.67514122722727L197.44096647898357,34.67514122722727L197.68174814542135,34.67514122722727L197.92252981185914,34.67514122722727L198.16331147829692,34.67514122722727L198.4040931447347,34.67514122722727L198.64487481117249,34.67514122722727L198.88565647761027,34.67514122722727L199.12643814404805,34.67514122722727L199.36721981048584,34.67514122722727L199.60800147692362,34.67514122722727L199.8487831433614,34.67514122722727L200.08956480979919,34.67514122722727L200.330346476237,34.67514122722727L200.57112814267478,34.67514122722727L200.81190980911254,34.67514122722727L201.05269147555032,34.67514122722727L201.2934731419881,34.67514122722727L201.5342548084259,34.67514122722727L201.7750364748637,34.67514122722727L202.01581814130148,34.67514122722727L202.25659980773924,34.67010717153576L202.49738147417705,34.67010717153576L202.73816314061483,34.67010717153576L202.9789448070526,34.67010717153576L203.2197264734904,34.67010717153576L203.4605081399282,34.67010717153576L203.70128980636596,34.67010717153576L203.94207147280375,34.67010717153576L204.18285313924153,34.67010717153576L204.4236348056793,34.67010717153576L204.66441647211713,34.67010717153576L204.90519813855488,34.67010717153576L205.14597980499266,34.67010717153576L205.38676147143045,34.67010717153576L205.62754313786826,34.67010717153576L205.86832480430604,34.67010717153576L206.10910647074382,34.67010717153576L206.34988813718158,34.67010717153576L206.59066980361936,34.67010717153576L206.83145147005717,34.67010717153576L207.07223313649496,34.67010717153576L207.31301480293274,34.67010717153576L207.55379646937052,34.52278468328794L207.7945781358083,34.52278468328794L208.0353598022461,34.52278468328794L208.27614146868387,34.52278468328794L208.51692313512166,34.52278468328794L208.75770480155947,34.52278468328794L208.99848646799725,34.52278468328794L209.239268134435,34.52278468328794L209.4800498008728,34.52278468328794L209.72083146731057,34.52278468328794L209.9616131337484,34.3043292912466L210.20239480018617,34.3043292912466L210.44317646662395,34.3043292912466L210.6839581330617,34.3043292912466L210.92473979949952,34.3043292912466L211.1655214659373,34.3043292912466L211.4063031323751,34.3043292912466L211.64708479881287,34.3043292912466L211.88786646525062,34.3043292912466L212.12864813168844,34.3043292912466L212.36942979812622,34.3043292912466L212.610211464564,34.3043292912466L212.8509931310018,34.3043292912466L213.0917747974396,34.3043292912466L213.33255646387735,34.3043292912466L213.57333813031514,34.3043292912466L213.81411979675292,34.3043292912466L214.05490146319073,34.3043292912466L214.29568312962851,34.3043292912466L214.5364647960663,34.267507153548166L214.77724646250405,34.267507153548166L215.01802812894184,34.267507153548166L215.25880979537965,34.267507153548166L215.49959146181743,34.267507153548166L215.74037312825521,34.267507153548166L215.981154794693,34.267507153548166L216.22193646113078,34.267507153548166L216.46271812756856,34.267507153548166L216.70349979400635,34.267507153548166L216.94428146044413,34.267507153548166L217.18506312688191,34.267507153548166L217.4258447933197,34.267507153548166L217.66662645975748,34.267507153548166L217.90740812619526,34.267507153548166L218.14818979263305,34.267507153548166L218.38897145907086,34.267507153548166L218.62975312550864,34.267507153548166L218.8705347919464,34.267507153548166L219.11131645838418,34.267507153548166L219.35209812482196,34.267507153548166L219.59287979125978,34.267507153548166L219.83366145769756,34.267507153548166L220.07444312413534,34.267507153548166L220.3152247905731,34.267507153548166L220.5560064570109,34.267507153548166L220.7967881234487,34.267507153548166L221.03756978988648,34.267507153548166L221.27835145632426,34.267507153548166L221.51913312276207,34.267507153548166L221.75991478919983,34.267507153548166L222.0006964556376,34.267507153548166L222.2414781220754,34.267507153548166L222.48225978851318,34.267507153548166L222.723041454951,34.267507153548166L222.96382312138874,34.267507153548166L223.20460478782653,34.267507153548166L223.4453864542643,34.24909042845658L223.68616812070212,34.24909042845658L223.9269497871399,34.24909042845658L224.1677314535777,34.24909042845658L224.40851312001544,34.23988206591082L224.64929478645323,34.23988206591082L224.89007645289104,34.23988206591082L225.13085811932882,34.23988206591082L225.3716397857666,34.23988206591082L225.6124214522044,34.23988206591082L225.85320311864217,34.23988206591082L226.09398478507995,34.0180781783983L226.33476645151774,34.0180781783983L226.57554811795552,34.0180781783983L226.81632978439333,34.0180781783983L227.05711145083112,34.0180781783983L227.29789311726887,33.91847175061497L227.53867478370665,33.91847175061497L227.77945645014444,33.91847175061497L228.02023811658225,33.91847175061497L228.26101978302003,33.91847175061497L228.50180144945782,33.91847175061497L228.74258311589557,33.92977292283024L228.98336478233338,33.92977292283024L229.22414644877117,33.92977292283024L229.46492811520895,33.92977292283024L229.70570978164673,33.92977292283024L229.9464914480845,33.92977292283024L230.1872731145223,33.92977292283024L230.42805478096008,33.92977292283024L230.66883644739787,33.86302926310037L230.90961811383565,33.86302926310037L231.15039978027346,33.86302926310037L231.39118144671122,33.86302926310037L231.631963113149,33.86302926310037L231.87274477958678,33.86302926310037L232.1135264460246,33.86302926310037L232.35430811246238,33.86302926310037L232.59508977890016,33.86302926310037L232.83587144533792,33.86302926310037L233.0766531117757,33.86302926310037L233.3174347782135,33.86302926310037L233.5582164446513,33.86302926310037L233.79899811108908,33.86302926310037L234.03977977752686,33.82964612075071L234.28056144396464,33.82964612075071L234.52134311040243,33.82964612075071L234.7621247768402,33.74056030373836L235.002906443278,33.74056030373836L235.24368810971578,33.74056030373836L235.48446977615356,33.74056030373836L235.72525144259134,33.74056030373836L235.96603310902913,33.696023051474555L236.2068147754669,33.696023051474555L236.44759644190472,33.696023051474555L236.6883781083425,33.696023051474555L236.92915977478026,33.696023051474555L237.16994144121804,33.696023051474555L237.41072310765583,33.696023051474555L237.65150477409364,33.696023051474555L237.89228644053142,33.696023051474555L238.1330681069692,33.696023051474555L238.37384977340696,33.696023051474555L238.61463143984477,33.696023051474555L238.85541310628255,33.696023051474555L239.09619477272034,33.696023051474555L239.33697643915812,33.696023051474555L239.57775810559593,33.696023051474555L239.8185397720337,33.696023051474555L240.05932143847147,33.696023051474555L240.30010310490925,33.696023051474555L240.54088477134704,33.696023051474555L240.78166643778485,33.696023051474555L241.0224481042226,33.696023051474555L241.2632297706604,33.696023051474555L241.50401143709817,33.696023051474555L241.74479310353598,33.696023051474555L241.98557476997377,33.696023051474555L242.22635643641155,33.696023051474555L242.4671381028493,33.696023051474555L242.7079197692871,33.696023051474555L242.9487014357249,33.696023051474555L243.18948310216268,33.696023051474555L243.43026476860047,33.696023051474555L243.67104643503825,33.696023051474555L243.91182810147603,33.696023051474555L244.15260976791382,33.696023051474555L244.3933914343516,33.696023051474555L244.63417310078938,33.696023051474555L244.8749547672272,33.528948964940525L245.11573643366498,33.528948964940525L245.35651810010273,33.528948964940525L245.59729976654052,33.528948964940525L245.8380814329783,33.528948964940525L246.0788630994161,33.528948964940525L246.3196447658539,33.528948964940525L246.56042643229168,33.528948964940525L246.80120809872943,33.528948964940525L247.04198976516724,33.44540626543119L247.28277143160503,33.44540626543119L247.5235530980428,33.44540626543119L247.7643347644806,33.44540626543119L248.00511643091835,33.44540626543119L248.24589809735616,33.44540626543119L248.48667976379394,33.44540626543119L248.72746143023173,33.44540626543119L248.9682430966695,33.44540626543119L249.20902476310732,33.44540626543119L249.44980642954508,33.44540626543119L249.69058809598286,33.44540626543119L249.93136976242064,33.44540626543119L250.17215142885846,33.44540626543119L250.41293309529624,33.44540626543119L250.65371476173402,33.44540626543119L250.89449642817178,33.44540626543119L251.13527809460956,33.44540626543119L251.37605976104737,33.44540626543119L251.61684142748516,33.44540626543119L251.85762309392294,33.44540626543119L252.09840476036072,33.44540626543119L252.3391864267985,33.44540626543119L252.5799680932363,33.44540626543119L252.82074975967407,33.44540626543119L253.06153142611186,33.44540626543119L253.30231309254964,33.44540626543119L253.54309475898742,33.44540626543119L253.7838764254252,33.44540626543119L254.024658091863,33.44540626543119L254.26543975830077,33.44540626543119L254.50622142473858,33.44540626543119L254.74700309117637,33.44540626543119L254.98778475761412,33.44540626543119L255.2285664240519,33.44540626543119L255.4693480904897,33.44540626543119L255.7101297569275,33.44540626543119L255.95091142336528,33.44540626543119L256.1916930898031,33.44540626543119L256.4324747562408,33.44540626543119L256.6732564226786,33.44540626543119L256.9140380891164,33.33124066983899L257.15481975555423,33.27415787204288L257.395601421992,33.27415787204288L257.6363830884298,33.27415787204288L257.8771647548675,33.27415787204288L258.1179464213053,33.27415787204288L258.35872808774315,33.27415787204288L258.59950975418093,33.27415787204288L258.8402914206187,33.27415787204288L259.08107308705644,33.27415787204288L259.3218547534943,33.27415787204288L259.56263641993206,33.27415787204288L259.80341808636985,33.27415787204288L260.04419975280763,33.27415787204288L260.2849814192454,33.27415787204288L260.5257630856832,33.27415787204288L260.766544752121,33.27415787204288L261.00732641855876,33.27415787204288L261.24810808499655,33.27415787204288L261.48888975143433,33.27415787204288L261.7296714178721,33.27415787204288L261.9704530843099,33.27415787204288L262.2112347507477,33.27415787204288L262.45201641718546,33.27415787204288L262.69279808362325,33.27415787204288L262.933579750061,33.27415787204288L263.1743614164988,33.27415787204288L263.4151430829366,33.27415787204288L263.6559247493744,33.27415787204288L263.89670641581216,33.27415787204288L264.13748808224994,33.27415787204288L264.3782697486877,33.27415787204288L264.61905141512557,33.27415787204288" fill="none"></path></g></g></g></g></g></g><g transform="translate(41, 177)" clip-path="url(#clip_1)"><clipPath id="clip_1"><rect width="288" height="22"></rect></clipPath><g><g><line x1="0" y1="0" x2="0" y2="5" style="visibility: inherit;" fill="rgb(0, 0, 0)" stroke="rgb(204, 204, 204)" stroke-width="1px"></line><line x1="24.07816664377848" y1="0" x2="24.07816664377848" y2="5" style="visibility: inherit;" fill="rgb(0, 0, 0)" stroke="rgb(204, 204, 204)" stroke-width="1px"></line><line x1="48.15633328755696" y1="0" x2="48.15633328755696" y2="5" style="visibility: inherit;" fill="rgb(0, 0, 0)" stroke="rgb(204, 204, 204)" stroke-width="1px"></line><line x1="72.23449993133545" y1="0" x2="72.23449993133545" y2="5" style="visibility: inherit;" fill="rgb(0, 0, 0)" stroke="rgb(204, 204, 204)" stroke-width="1px"></line><line x1="96.31266657511392" y1="0" x2="96.31266657511392" y2="5" style="visibility: inherit;" fill="rgb(0, 0, 0)" stroke="rgb(204, 204, 204)" stroke-width="1px"></line><line x1="120.39083321889242" y1="0" x2="120.39083321889242" y2="5" style="visibility: inherit;" fill="rgb(0, 0, 0)" stroke="rgb(204, 204, 204)" stroke-width="1px"></line><line x1="144.4689998626709" y1="0" x2="144.4689998626709" y2="5" style="visibility: inherit;" fill="rgb(0, 0, 0)" stroke="rgb(204, 204, 204)" stroke-width="1px"></line><line x1="168.5471665064494" y1="0" x2="168.5471665064494" y2="5" style="visibility: inherit;" fill="rgb(0, 0, 0)" stroke="rgb(204, 204, 204)" stroke-width="1px"></line><line x1="192.62533315022785" y1="0" x2="192.62533315022785" y2="5" style="visibility: inherit;" fill="rgb(0, 0, 0)" stroke="rgb(204, 204, 204)" stroke-width="1px"></line><line x1="216.70349979400635" y1="0" x2="216.70349979400635" y2="5" style="visibility: inherit;" fill="rgb(0, 0, 0)" stroke="rgb(204, 204, 204)" stroke-width="1px"></line><line x1="240.78166643778485" y1="0" x2="240.78166643778485" y2="5" style="visibility: inherit;" fill="rgb(0, 0, 0)" stroke="rgb(204, 204, 204)" stroke-width="1px"></line><line x1="264.8598330815633" y1="0" x2="264.8598330815633" y2="5" style="visibility: inherit;" fill="rgb(0, 0, 0)" stroke="rgb(204, 204, 204)" stroke-width="1px"></line><line x1="288.9379997253418" y1="0" x2="288.9379997253418" y2="5" style="visibility: inherit;" fill="rgb(0, 0, 0)" stroke="rgb(204, 204, 204)" stroke-width="1px"></line></g><g transform="translate(0, 8)"><text style="text-anchor: middle; visibility: hidden; font-family: &quot;Helvetica Neue&quot;, sans-serif; font-size: 12px; font-weight: 200;" x="0" y="0" dx="0em" dy="0.95em" fill="rgb(50, 49, 63)" stroke="none" stroke-width="1px">-100</text><text style="text-anchor: middle; visibility: hidden; font-family: &quot;Helvetica Neue&quot;, sans-serif; font-size: 12px; font-weight: 200;" x="24.07816664377848" y="0" dx="0em" dy="0.95em" fill="rgb(50, 49, 63)" stroke="none" stroke-width="1px">0</text><text style="text-anchor: middle; visibility: hidden; font-family: &quot;Helvetica Neue&quot;, sans-serif; font-size: 12px; font-weight: 200;" x="48.15633328755696" y="0" dx="0em" dy="0.95em" fill="rgb(50, 49, 63)" stroke="none" stroke-width="1px">100</text><text style="text-anchor: middle; visibility: hidden; font-family: &quot;Helvetica Neue&quot;, sans-serif; font-size: 12px; font-weight: 200;" x="72.23449993133545" y="0" dx="0em" dy="0.95em" fill="rgb(50, 49, 63)" stroke="none" stroke-width="1px">200</text><text style="text-anchor: middle; visibility: hidden; font-family: &quot;Helvetica Neue&quot;, sans-serif; font-size: 12px; font-weight: 200;" x="96.31266657511392" y="0" dx="0em" dy="0.95em" fill="rgb(50, 49, 63)" stroke="none" stroke-width="1px">300</text><text style="text-anchor: middle; visibility: hidden; font-family: &quot;Helvetica Neue&quot;, sans-serif; font-size: 12px; font-weight: 200;" x="120.39083321889242" y="0" dx="0em" dy="0.95em" fill="rgb(50, 49, 63)" stroke="none" stroke-width="1px">400</text><text style="text-anchor: middle; visibility: hidden; font-family: &quot;Helvetica Neue&quot;, sans-serif; font-size: 12px; font-weight: 200;" x="144.4689998626709" y="0" dx="0em" dy="0.95em" fill="rgb(50, 49, 63)" stroke="none" stroke-width="1px">500</text><text style="text-anchor: middle; visibility: hidden; font-family: &quot;Helvetica Neue&quot;, sans-serif; font-size: 12px; font-weight: 200;" x="168.5471665064494" y="0" dx="0em" dy="0.95em" fill="rgb(50, 49, 63)" stroke="none" stroke-width="1px">600</text><text style="text-anchor: middle; visibility: hidden; font-family: &quot;Helvetica Neue&quot;, sans-serif; font-size: 12px; font-weight: 200;" x="192.62533315022785" y="0" dx="0em" dy="0.95em" fill="rgb(50, 49, 63)" stroke="none" stroke-width="1px">700</text><text style="text-anchor: middle; visibility: hidden; font-family: &quot;Helvetica Neue&quot;, sans-serif; font-size: 12px; font-weight: 200;" x="216.70349979400635" y="0" dx="0em" dy="0.95em" fill="rgb(50, 49, 63)" stroke="none" stroke-width="1px">800</text><text style="text-anchor: middle; visibility: hidden; font-family: &quot;Helvetica Neue&quot;, sans-serif; font-size: 12px; font-weight: 200;" x="240.78166643778485" y="0" dx="0em" dy="0.95em" fill="rgb(50, 49, 63)" stroke="none" stroke-width="1px">900</text><text style="text-anchor: middle; visibility: hidden; font-family: &quot;Helvetica Neue&quot;, sans-serif; font-size: 12px; font-weight: 200;" x="264.8598330815633" y="0" dx="0em" dy="0.95em" fill="rgb(50, 49, 63)" stroke="none" stroke-width="1px">1k</text><text style="text-anchor: middle; visibility: hidden; font-family: &quot;Helvetica Neue&quot;, sans-serif; font-size: 12px; font-weight: 200;" x="288.9379997253418" y="0" dx="0em" dy="0.95em" fill="rgb(50, 49, 63)" stroke="none" stroke-width="1px">1.1k</text></g><line x1="0" y1="0" x2="288.9379997253418" y2="0" fill="rgb(0, 0, 0)" stroke="rgb(204, 204, 204)" stroke-width="1px"></line></g></g></g></g></svg>