<?xml version="1.0" encoding="UTF-8" standalone="no"?>
<svg
   xmlns:dc="http://purl.org/dc/elements/1.1/"
   xmlns:cc="http://creativecommons.org/ns#"
   xmlns:rdf="http://www.w3.org/1999/02/22-rdf-syntax-ns#"
   xmlns:svg="http://www.w3.org/2000/svg"
   xmlns="http://www.w3.org/2000/svg"
   viewBox="0 0 614.40002 460.79999"
   height="460.79999"
   width="614.40002"
   xml:space="preserve"
   id="svg2"
   version="1.1"><metadata
     id="metadata8"><rdf:RDF><cc:Work
         rdf:about=""><dc:format>image/svg+xml</dc:format><dc:type
           rdf:resource="http://purl.org/dc/dcmitype/StillImage" /></cc:Work></rdf:RDF></metadata><defs
     id="defs6"><clipPath
       id="clipPath22"
       clipPathUnits="userSpaceOnUse"><path
         id="path20"
         d="M 44.57,41.96 H 391.03 V 333.03532 H 44.57 Z" /></clipPath><clipPath
       id="clipPath40"
       clipPathUnits="userSpaceOnUse"><path
         id="path38"
         d="M 44.57,41.96 H 391.03 V 333.03532 H 44.57 Z" /></clipPath><clipPath
       id="clipPath58"
       clipPathUnits="userSpaceOnUse"><path
         id="path56"
         d="M 44.57,41.96 H 391.03 V 333.03532 H 44.57 Z" /></clipPath><clipPath
       id="clipPath76"
       clipPathUnits="userSpaceOnUse"><path
         id="path74"
         d="M 44.57,41.96 H 391.03 V 333.03532 H 44.57 Z" /></clipPath><clipPath
       id="clipPath94"
       clipPathUnits="userSpaceOnUse"><path
         id="path92"
         d="M 44.57,41.96 H 391.03 V 333.03532 H 44.57 Z" /></clipPath><clipPath
       id="clipPath112"
       clipPathUnits="userSpaceOnUse"><path
         id="path110"
         d="M 44.57,41.96 H 391.03 V 333.03532 H 44.57 Z" /></clipPath><clipPath
       id="clipPath130"
       clipPathUnits="userSpaceOnUse"><path
         id="path128"
         d="M 44.57,41.96 H 391.03 V 333.03532 H 44.57 Z" /></clipPath><clipPath
       id="clipPath152"
       clipPathUnits="userSpaceOnUse"><path
         id="path150"
         d="M 44.57,41.96 H 391.03 V 333.03532 H 44.57 Z" /></clipPath><clipPath
       id="clipPath170"
       clipPathUnits="userSpaceOnUse"><path
         id="path168"
         d="M 44.57,41.96 H 391.03 V 333.03532 H 44.57 Z" /></clipPath><clipPath
       id="clipPath188"
       clipPathUnits="userSpaceOnUse"><path
         id="path186"
         d="M 44.57,41.96 H 391.03 V 333.03532 H 44.57 Z" /></clipPath><clipPath
       id="clipPath206"
       clipPathUnits="userSpaceOnUse"><path
         id="path204"
         d="M 44.57,41.96 H 391.03 V 333.03532 H 44.57 Z" /></clipPath><clipPath
       id="clipPath224"
       clipPathUnits="userSpaceOnUse"><path
         id="path222"
         d="M 44.57,41.96 H 391.03 V 333.03532 H 44.57 Z" /></clipPath><clipPath
       id="clipPath242"
       clipPathUnits="userSpaceOnUse"><path
         id="path240"
         d="M 44.57,41.96 H 391.03 V 333.03532 H 44.57 Z" /></clipPath><clipPath
       id="clipPath260"
       clipPathUnits="userSpaceOnUse"><path
         id="path258"
         d="M 44.57,41.96 H 391.03 V 333.03532 H 44.57 Z" /></clipPath><clipPath
       id="clipPath282"
       clipPathUnits="userSpaceOnUse"><path
         id="path280"
         d="M 44.57,41.96 H 391.03 V 333.03532 H 44.57 Z" /></clipPath><clipPath
       id="clipPath348"
       clipPathUnits="userSpaceOnUse"><path
         id="path346"
         d="M 44.57,41.96 H 391.03 V 333.03532 H 44.57 Z" /></clipPath></defs><g
     transform="matrix(1.3333333,0,0,-1.3333333,0,460.8)"
     id="g10"><path
       id="path12"
       style="fill:#ffffff;fill-opacity:1;fill-rule:nonzero;stroke:none"
       d="M 0,0 H 460.8 V 345.6 H 0 Z" /><path
       id="path14"
       style="fill:#ffffff;fill-opacity:1;fill-rule:nonzero;stroke:none"
       d="M 44.57,41.96 H 391.03 V 333.03532 H 44.57 Z" /><g
       id="g16"><g
         clip-path="url(#clipPath22)"
         id="g18"><path
           id="path24"
           style="fill:none;stroke:#b0b0b0;stroke-width:0.80000001;stroke-linecap:square;stroke-linejoin:round;stroke-miterlimit:10;stroke-dasharray:none;stroke-opacity:1"
           d="M 60.318182,41.96 V 333.03532" /></g></g><g
       id="g26"><path
         id="path28"
         style="fill:#000000;fill-opacity:1;fill-rule:nonzero;stroke:#000000;stroke-width:0.80000001;stroke-linecap:butt;stroke-linejoin:round;stroke-miterlimit:10;stroke-dasharray:none;stroke-opacity:1"
         d="m 60.318182,41.96 v -3.5" /><text
         id="text32"
         style="font-variant:normal;font-weight:normal;font-size:10px;font-family:'DejaVu Sans';-inkscape-font-specification:DejaVuSans;writing-mode:lr-tb;fill:#000000;fill-opacity:1;fill-rule:nonzero;stroke:none"
         transform="matrix(1,0,0,-1,57.138494,27.36625)"><tspan
           id="tspan30"
           y="0"
           x="0">0</tspan></text>
</g><g
       id="g34"><g
         clip-path="url(#clipPath40)"
         id="g36"><path
           id="path42"
           style="fill:none;stroke:#b0b0b0;stroke-width:0.80000001;stroke-linecap:square;stroke-linejoin:round;stroke-miterlimit:10;stroke-dasharray:none;stroke-opacity:1"
           d="M 110.1542,41.96 V 333.03532" /></g></g><g
       id="g44"><path
         id="path46"
         style="fill:#000000;fill-opacity:1;fill-rule:nonzero;stroke:#000000;stroke-width:0.80000001;stroke-linecap:butt;stroke-linejoin:round;stroke-miterlimit:10;stroke-dasharray:none;stroke-opacity:1"
         d="m 110.1542,41.96 v -3.5" /><text
         id="text50"
         style="font-variant:normal;font-weight:normal;font-size:10px;font-family:'DejaVu Sans';-inkscape-font-specification:DejaVuSans;writing-mode:lr-tb;fill:#000000;fill-opacity:1;fill-rule:nonzero;stroke:none"
         transform="matrix(1,0,0,-1,103.79483,27.36625)"><tspan
           id="tspan48"
           y="0"
           x="0 6.3600001">50</tspan></text>
</g><g
       id="g52"><g
         clip-path="url(#clipPath58)"
         id="g54"><path
           id="path60"
           style="fill:none;stroke:#b0b0b0;stroke-width:0.80000001;stroke-linecap:square;stroke-linejoin:round;stroke-miterlimit:10;stroke-dasharray:none;stroke-opacity:1"
           d="M 159.99022,41.96 V 333.03532" /></g></g><g
       id="g62"><path
         id="path64"
         style="fill:#000000;fill-opacity:1;fill-rule:nonzero;stroke:#000000;stroke-width:0.80000001;stroke-linecap:butt;stroke-linejoin:round;stroke-miterlimit:10;stroke-dasharray:none;stroke-opacity:1"
         d="m 159.99022,41.96 v -3.5" /><text
         id="text68"
         style="font-variant:normal;font-weight:normal;font-size:10px;font-family:'DejaVu Sans';-inkscape-font-specification:DejaVuSans;writing-mode:lr-tb;fill:#000000;fill-opacity:1;fill-rule:nonzero;stroke:none"
         transform="matrix(1,0,0,-1,150.45116,27.36625)"><tspan
           id="tspan66"
           y="0"
           x="0 6.3600001 12.72">100</tspan></text>
</g><g
       id="g70"><g
         clip-path="url(#clipPath76)"
         id="g72"><path
           id="path78"
           style="fill:none;stroke:#b0b0b0;stroke-width:0.80000001;stroke-linecap:square;stroke-linejoin:round;stroke-miterlimit:10;stroke-dasharray:none;stroke-opacity:1"
           d="M 209.82624,41.96 V 333.03532" /></g></g><g
       id="g80"><path
         id="path82"
         style="fill:#000000;fill-opacity:1;fill-rule:nonzero;stroke:#000000;stroke-width:0.80000001;stroke-linecap:butt;stroke-linejoin:round;stroke-miterlimit:10;stroke-dasharray:none;stroke-opacity:1"
         d="m 209.82624,41.96 v -3.5" /><text
         id="text86"
         style="font-variant:normal;font-weight:normal;font-size:10px;font-family:'DejaVu Sans';-inkscape-font-specification:DejaVuSans;writing-mode:lr-tb;fill:#000000;fill-opacity:1;fill-rule:nonzero;stroke:none"
         transform="matrix(1,0,0,-1,200.28717,27.36625)"><tspan
           id="tspan84"
           y="0"
           x="0 6.3600001 12.72">150</tspan></text>
</g><g
       id="g88"><g
         clip-path="url(#clipPath94)"
         id="g90"><path
           id="path96"
           style="fill:none;stroke:#b0b0b0;stroke-width:0.80000001;stroke-linecap:square;stroke-linejoin:round;stroke-miterlimit:10;stroke-dasharray:none;stroke-opacity:1"
           d="M 259.66226,41.96 V 333.03532" /></g></g><g
       id="g98"><path
         id="path100"
         style="fill:#000000;fill-opacity:1;fill-rule:nonzero;stroke:#000000;stroke-width:0.80000001;stroke-linecap:butt;stroke-linejoin:round;stroke-miterlimit:10;stroke-dasharray:none;stroke-opacity:1"
         d="m 259.66226,41.96 v -3.5" /><text
         id="text104"
         style="font-variant:normal;font-weight:normal;font-size:10px;font-family:'DejaVu Sans';-inkscape-font-specification:DejaVuSans;writing-mode:lr-tb;fill:#000000;fill-opacity:1;fill-rule:nonzero;stroke:none"
         transform="matrix(1,0,0,-1,250.12319,27.36625)"><tspan
           id="tspan102"
           y="0"
           x="0 6.3600001 12.72">200</tspan></text>
</g><g
       id="g106"><g
         clip-path="url(#clipPath112)"
         id="g108"><path
           id="path114"
           style="fill:none;stroke:#b0b0b0;stroke-width:0.80000001;stroke-linecap:square;stroke-linejoin:round;stroke-miterlimit:10;stroke-dasharray:none;stroke-opacity:1"
           d="M 309.49827,41.96 V 333.03532" /></g></g><g
       id="g116"><path
         id="path118"
         style="fill:#000000;fill-opacity:1;fill-rule:nonzero;stroke:#000000;stroke-width:0.80000001;stroke-linecap:butt;stroke-linejoin:round;stroke-miterlimit:10;stroke-dasharray:none;stroke-opacity:1"
         d="m 309.49827,41.96 v -3.5" /><text
         id="text122"
         style="font-variant:normal;font-weight:normal;font-size:10px;font-family:'DejaVu Sans';-inkscape-font-specification:DejaVuSans;writing-mode:lr-tb;fill:#000000;fill-opacity:1;fill-rule:nonzero;stroke:none"
         transform="matrix(1,0,0,-1,299.95921,27.36625)"><tspan
           id="tspan120"
           y="0"
           x="0 6.3600001 12.72">250</tspan></text>
</g><g
       id="g124"><g
         clip-path="url(#clipPath130)"
         id="g126"><path
           id="path132"
           style="fill:none;stroke:#b0b0b0;stroke-width:0.80000001;stroke-linecap:square;stroke-linejoin:round;stroke-miterlimit:10;stroke-dasharray:none;stroke-opacity:1"
           d="M 359.33429,41.96 V 333.03532" /></g></g><g
       id="g134"><path
         id="path136"
         style="fill:#000000;fill-opacity:1;fill-rule:nonzero;stroke:#000000;stroke-width:0.80000001;stroke-linecap:butt;stroke-linejoin:round;stroke-miterlimit:10;stroke-dasharray:none;stroke-opacity:1"
         d="m 359.33429,41.96 v -3.5" /><text
         id="text140"
         style="font-variant:normal;font-weight:normal;font-size:10px;font-family:'DejaVu Sans';-inkscape-font-specification:DejaVuSans;writing-mode:lr-tb;fill:#000000;fill-opacity:1;fill-rule:nonzero;stroke:none"
         transform="matrix(1,0,0,-1,349.79523,27.36625)"><tspan
           id="tspan138"
           y="0"
           x="0 6.3600001 12.72">300</tspan></text>
<text
         id="text144"
         style="font-variant:normal;font-weight:normal;font-size:10px;font-family:'DejaVu Sans';-inkscape-font-specification:DejaVuSans;writing-mode:lr-tb;fill:#000000;fill-opacity:1;fill-rule:nonzero;stroke:none"
         transform="matrix(1,0,0,-1,175.55,13.694375)"><tspan
           id="tspan142"
           y="0"
           x="0 2.95 6.8699999 13.02 17.129999 23.26 27.18 29.959999 36.080002 42.419998 45.599998 51.950001 58.099998 62.209999 65.389999 71.75 78.110001">Iteration per 300</tspan></text>
</g><g
       id="g146"><g
         clip-path="url(#clipPath152)"
         id="g148"><path
           id="path154"
           style="fill:none;stroke:#b0b0b0;stroke-width:0.80000001;stroke-linecap:square;stroke-linejoin:round;stroke-miterlimit:10;stroke-dasharray:none;stroke-opacity:1"
           d="M 44.57,76.378648 H 391.03" /></g></g><g
       id="g156"><path
         id="path158"
         style="fill:#000000;fill-opacity:1;fill-rule:nonzero;stroke:#000000;stroke-width:0.80000001;stroke-linecap:butt;stroke-linejoin:round;stroke-miterlimit:10;stroke-dasharray:none;stroke-opacity:1"
         d="m 44.57,76.378648 h -3.5" /><text
         id="text162"
         style="font-variant:normal;font-weight:normal;font-size:10px;font-family:'DejaVu Sans';-inkscape-font-specification:DejaVuSans;writing-mode:lr-tb;fill:#d62728;fill-opacity:1;fill-rule:nonzero;stroke:none"
         transform="matrix(1,0,0,-1,24.85125,72.581773)"><tspan
           id="tspan160"
           y="0"
           x="0 6.3600001">10</tspan></text>
</g><g
       id="g164"><g
         clip-path="url(#clipPath170)"
         id="g166"><path
           id="path172"
           style="fill:none;stroke:#b0b0b0;stroke-width:0.80000001;stroke-linecap:square;stroke-linejoin:round;stroke-miterlimit:10;stroke-dasharray:none;stroke-opacity:1"
           d="M 44.57,118.75455 H 391.03" /></g></g><g
       id="g174"><path
         id="path176"
         style="fill:#000000;fill-opacity:1;fill-rule:nonzero;stroke:#000000;stroke-width:0.80000001;stroke-linecap:butt;stroke-linejoin:round;stroke-miterlimit:10;stroke-dasharray:none;stroke-opacity:1"
         d="m 44.57,118.75455 h -3.5" /><text
         id="text180"
         style="font-variant:normal;font-weight:normal;font-size:10px;font-family:'DejaVu Sans';-inkscape-font-specification:DejaVuSans;writing-mode:lr-tb;fill:#d62728;fill-opacity:1;fill-rule:nonzero;stroke:none"
         transform="matrix(1,0,0,-1,24.85125,114.95768)"><tspan
           id="tspan178"
           y="0"
           x="0 6.3600001">20</tspan></text>
</g><g
       id="g182"><g
         clip-path="url(#clipPath188)"
         id="g184"><path
           id="path190"
           style="fill:none;stroke:#b0b0b0;stroke-width:0.80000001;stroke-linecap:square;stroke-linejoin:round;stroke-miterlimit:10;stroke-dasharray:none;stroke-opacity:1"
           d="M 44.57,161.13045 H 391.03" /></g></g><g
       id="g192"><path
         id="path194"
         style="fill:#000000;fill-opacity:1;fill-rule:nonzero;stroke:#000000;stroke-width:0.80000001;stroke-linecap:butt;stroke-linejoin:round;stroke-miterlimit:10;stroke-dasharray:none;stroke-opacity:1"
         d="m 44.57,161.13045 h -3.5" /><text
         id="text198"
         style="font-variant:normal;font-weight:normal;font-size:10px;font-family:'DejaVu Sans';-inkscape-font-specification:DejaVuSans;writing-mode:lr-tb;fill:#d62728;fill-opacity:1;fill-rule:nonzero;stroke:none"
         transform="matrix(1,0,0,-1,24.85125,157.33358)"><tspan
           id="tspan196"
           y="0"
           x="0 6.3600001">30</tspan></text>
</g><g
       id="g200"><g
         clip-path="url(#clipPath206)"
         id="g202"><path
           id="path208"
           style="fill:none;stroke:#b0b0b0;stroke-width:0.80000001;stroke-linecap:square;stroke-linejoin:round;stroke-miterlimit:10;stroke-dasharray:none;stroke-opacity:1"
           d="M 44.57,203.50635 H 391.03" /></g></g><g
       id="g210"><path
         id="path212"
         style="fill:#000000;fill-opacity:1;fill-rule:nonzero;stroke:#000000;stroke-width:0.80000001;stroke-linecap:butt;stroke-linejoin:round;stroke-miterlimit:10;stroke-dasharray:none;stroke-opacity:1"
         d="m 44.57,203.50635 h -3.5" /><text
         id="text216"
         style="font-variant:normal;font-weight:normal;font-size:10px;font-family:'DejaVu Sans';-inkscape-font-specification:DejaVuSans;writing-mode:lr-tb;fill:#d62728;fill-opacity:1;fill-rule:nonzero;stroke:none"
         transform="matrix(1,0,0,-1,24.85125,199.70948)"><tspan
           id="tspan214"
           y="0"
           x="0 6.3600001">40</tspan></text>
</g><g
       id="g218"><g
         clip-path="url(#clipPath224)"
         id="g220"><path
           id="path226"
           style="fill:none;stroke:#b0b0b0;stroke-width:0.80000001;stroke-linecap:square;stroke-linejoin:round;stroke-miterlimit:10;stroke-dasharray:none;stroke-opacity:1"
           d="M 44.57,245.88226 H 391.03" /></g></g><g
       id="g228"><path
         id="path230"
         style="fill:#000000;fill-opacity:1;fill-rule:nonzero;stroke:#000000;stroke-width:0.80000001;stroke-linecap:butt;stroke-linejoin:round;stroke-miterlimit:10;stroke-dasharray:none;stroke-opacity:1"
         d="m 44.57,245.88226 h -3.5" /><text
         id="text234"
         style="font-variant:normal;font-weight:normal;font-size:10px;font-family:'DejaVu Sans';-inkscape-font-specification:DejaVuSans;writing-mode:lr-tb;fill:#d62728;fill-opacity:1;fill-rule:nonzero;stroke:none"
         transform="matrix(1,0,0,-1,24.85125,242.08538)"><tspan
           id="tspan232"
           y="0"
           x="0 6.3600001">50</tspan></text>
</g><g
       id="g236"><g
         clip-path="url(#clipPath242)"
         id="g238"><path
           id="path244"
           style="fill:none;stroke:#b0b0b0;stroke-width:0.80000001;stroke-linecap:square;stroke-linejoin:round;stroke-miterlimit:10;stroke-dasharray:none;stroke-opacity:1"
           d="M 44.57,288.25816 H 391.03" /></g></g><g
       id="g246"><path
         id="path248"
         style="fill:#000000;fill-opacity:1;fill-rule:nonzero;stroke:#000000;stroke-width:0.80000001;stroke-linecap:butt;stroke-linejoin:round;stroke-miterlimit:10;stroke-dasharray:none;stroke-opacity:1"
         d="m 44.57,288.25816 h -3.5" /><text
         id="text252"
         style="font-variant:normal;font-weight:normal;font-size:10px;font-family:'DejaVu Sans';-inkscape-font-specification:DejaVuSans;writing-mode:lr-tb;fill:#d62728;fill-opacity:1;fill-rule:nonzero;stroke:none"
         transform="matrix(1,0,0,-1,24.85125,284.46128)"><tspan
           id="tspan250"
           y="0"
           x="0 6.3600001">60</tspan></text>
</g><g
       id="g254"><g
         clip-path="url(#clipPath260)"
         id="g256"><path
           id="path262"
           style="fill:none;stroke:#b0b0b0;stroke-width:0.80000001;stroke-linecap:square;stroke-linejoin:round;stroke-miterlimit:10;stroke-dasharray:none;stroke-opacity:1"
           d="M 44.57,330.63406 H 391.03" /></g></g><g
       id="g264"><path
         id="path266"
         style="fill:#000000;fill-opacity:1;fill-rule:nonzero;stroke:#000000;stroke-width:0.80000001;stroke-linecap:butt;stroke-linejoin:round;stroke-miterlimit:10;stroke-dasharray:none;stroke-opacity:1"
         d="m 44.57,330.63406 h -3.5" /><text
         id="text270"
         style="font-variant:normal;font-weight:normal;font-size:10px;font-family:'DejaVu Sans';-inkscape-font-specification:DejaVuSans;writing-mode:lr-tb;fill:#d62728;fill-opacity:1;fill-rule:nonzero;stroke:none"
         transform="matrix(1,0,0,-1,24.85125,326.83719)"><tspan
           id="tspan268"
           y="0"
           x="0 6.3600001">70</tspan></text>
<text
         id="text274"
         style="font-variant:normal;font-weight:normal;font-size:10px;font-family:'DejaVu Sans';-inkscape-font-specification:DejaVuSans;writing-mode:lr-tb;fill:#d62728;fill-opacity:1;fill-rule:nonzero;stroke:none"
         transform="matrix(0,1,1,0,18.773125,142.15391)"><tspan
           id="tspan272"
           y="0"
           x="0 6.8400002 12.76 18.91 23.02 29.15 35.5 41.650002 44.830002 51.669998 57.169998 62.669998 69.010002 73.120003 79.25 84.75">Average Accuracy</tspan></text>
</g><g
       id="g276"><g
         clip-path="url(#clipPath282)"
         id="g278"><path
           id="path284"
           style="fill:none;stroke:#d62728;stroke-width:1.5;stroke-linecap:square;stroke-linejoin:round;stroke-miterlimit:10;stroke-dasharray:none;stroke-opacity:1"
           d="m 60.318182,55.190697 h 3.986881 l 0.996721,33.026718 0.99672,9.299111 0.99672,-5.047554 0.996721,1.810365 0.99672,4.927763 h 0.996721 l 0.99672,3.88803 0.99672,-0.64547 h 0.996721 l 0.99672,8.14876 h 0.99672 l 0.996721,2.06521 0.99672,-2.10601 h 0.99672 l 0.996721,-3.63514 h 1.993441 l 0.99672,9.76901 h 0.99672 l 0.996721,-0.34569 0.99672,-1.68945 0.99672,4.90947 0.996721,-1.61488 0.99672,-1.38915 0.99672,1.73202 0.996721,1.28977 h 1.993441 l 0.99672,-0.20264 h 2.990161 l 0.99672,7.76818 0.996721,-0.27751 0.99672,0.92064 0.996724,8.01403 0.99672,5.80363 h 1.99344 l 0.99672,1.02715 h 0.99672 l 0.99672,2.58746 h 1.99344 l 0.99672,0.11342 h 0.99672 l 0.99672,4.33211 0.99672,7.39623 0.99672,-1.35799 h 1.99344 l 0.99672,1.21648 0.99672,5.95635 h 0.99672 l 0.99672,7.54599 0.99672,1.29081 0.99672,3.71277 0.99673,2.59634 h 3.98688 l 0.99672,0.23877 0.99672,1.50333 1.99344,12.89819 1.99344,-0.0893 h 0.99672 l 0.99672,-1.52783 0.99672,-3.30647 0.99672,4.06751 0.99672,0.12684 0.99672,-0.67816 h 2.99016 l 0.99672,4.99316 0.99672,-0.53736 h 0.99672 l 0.99672,0.81495 h 0.99672 l 0.99672,1.53886 0.99672,3.9071 h 0.99672 l 0.99672,4.3393 0.99672,0.6473 h 1.99345 l 0.99672,2.61512 0.99672,1.4135 0.99672,0.60081 h 1.99344 l 0.99672,0.40635 0.99672,2.57956 h 6.97704 l 0.99672,-0.87473 h 0.99672 l 0.99672,0.72797 h 0.99672 l 0.99672,0.20281 h 0.99672 l 0.99672,2.23862 0.99672,2.74522 0.99672,0.89359 0.99672,1.81249 0.99672,5.35773 0.99673,2.99859 0.99672,-0.23881 0.99672,-0.86099 h 0.99672 l 0.99672,0.14881 1.99344,-0.0811 0.99672,-0.35839 0.99672,0.69738 0.99672,2.21041 0.99672,-0.25587 0.99672,-1.37123 0.99672,-0.64664 0.99672,2.54818 0.99672,6.34198 0.99672,-1.33934 0.99672,-2.4347 2.99016,0.018 0.99672,2.23971 0.99672,-1.98412 h 1.99344 l 0.99672,0.82821 0.99672,0.57785 0.99672,0.36062 0.99673,0.59767 0.99672,0.28101 0.99672,2.90585 0.99672,-1.94095 0.99672,6.89086 h 0.99672 l 0.99672,-0.85015 0.99672,-0.53052 0.99672,0.40607 h 0.99672 l 0.99672,-1.28454 H 217.8 l 0.99672,1.05645 0.99672,-3.60269 2.99016,-0.1063 0.99672,-0.51235 1.99344,1.32974 0.99672,1.14986 0.99672,0.35174 0.99672,-0.36513 0.99672,-0.95074 0.99672,-1.7409 1.99345,3.51246 0.99672,-1.31323 0.99672,1.17607 0.99672,-0.36151 0.99672,-1.20407 h 0.99672 l 0.99672,1.65341 0.99672,2.32572 0.99672,1.45824 0.99672,-0.74224 0.99672,-0.31364 0.99672,2.57079 0.99672,1.12899 0.99672,0.35807 0.99672,-0.4433 0.99672,0.87568 0.99672,0.34522 h 0.99672 l 0.99672,-0.52045 0.99672,-3.41938 0.99672,-0.0495 0.99672,0.5177 0.99672,2.47573 0.99672,3.89407 0.99672,0.10113 0.99672,0.38535 0.99672,-0.37655 0.99673,1.8787 0.99672,0.6686 0.99672,2.91413 0.99672,-0.32155 0.99672,0.19354 0.99672,2.01542 0.99672,0.4328 0.99672,-1.8099 0.99672,1.3087 0.99672,-0.0657 0.99672,-0.27212 0.99672,0.2862 0.99672,1.05559 0.99672,-1.22866 0.99672,1.58961 0.99672,0.46519 0.99672,0.70997 0.99672,-2.41966 0.99672,2.27595 0.99672,-0.46565 0.99672,-2.65897 0.99672,-0.98838 1.99344,4.53313 h 0.99672 l 0.99672,0.11514 0.99672,2.16975 0.99672,-0.48156 0.99673,0.34884 0.99672,1.04816 0.99672,0.0814 0.99672,1.07551 0.99672,0.74398 0.99672,0.60244 0.99672,1.59663 0.99672,2.21955 1.99344,6.44454 0.99672,-0.18999 0.99672,1.30353 0.99672,-0.4259 0.99672,3.34941 0.99672,2.54772 0.99672,1.68544 0.99672,1.30281 0.99672,-2.61264 0.99672,1.49544 0.99672,-0.80956 0.99672,-1.27118 1.99344,-0.59562 1.99344,-3.58406 0.99672,0.85609 0.99672,1.5918 0.99673,-1.35195 0.99672,0.37089 h 0.99672 l 0.99672,-0.26952 0.99672,1.0345 0.99672,-2.17144 0.99672,2.93842 0.99672,2.5054 0.99672,-0.44055 0.99672,1.05181 0.99672,2.3633 0.99672,1.06487 0.99672,1.27362 0.99672,2.29315 1.99344,-1.91921 0.99672,2.7785 1.99344,0.93644 0.99672,2.8229 0.99672,0.4381 0.99672,0.999 0.99672,0.71879 0.99672,-0.0254 0.99672,-0.46039 0.99673,-1.21038 0.99671,0.91104 0.99673,0.23139 0.99672,-1.10489 0.99672,-1.66927 0.99672,-0.20146 0.99672,-1.83737 0.99672,0.15368 0.99672,2.56666 0.99672,-0.49104 0.99672,-2.64325 1.99344,8.68942 0.99672,0.32953 0.99672,-2.12418 0.99672,2.52985 0.99672,1.192 0.99672,4.30121 0.99672,-0.26871 0.99672,3.07006 0.99672,0.0276 0.99672,-2.06875 0.99672,-0.52026 0.99672,-1.89456 0.99672,-0.98814 0.99672,0.80321 0.99672,3.01455 0.99672,-0.7461 0.99672,2.36356 0.99673,2.65603 0.99672,0.40284 0.99672,-1.16405 0.99672,2.9544 0.99672,0.6838 0.99672,-0.87986 0.99672,-2.61131 0.99672,1.06059 v 0" /></g></g><g
       id="g286"><path
         id="path288"
         style="fill:none;stroke:#000000;stroke-width:0.80000001;stroke-linecap:square;stroke-linejoin:miter;stroke-miterlimit:10;stroke-dasharray:none;stroke-opacity:1"
         d="M 44.57,41.96 V 333.03532" /><path
         id="path290"
         style="fill:none;stroke:#000000;stroke-width:0.80000001;stroke-linecap:square;stroke-linejoin:miter;stroke-miterlimit:10;stroke-dasharray:none;stroke-opacity:1"
         d="M 391.03,41.96 V 333.03532" /><path
         id="path292"
         style="fill:none;stroke:#000000;stroke-width:0.80000001;stroke-linecap:square;stroke-linejoin:miter;stroke-miterlimit:10;stroke-dasharray:none;stroke-opacity:1"
         d="M 44.57,41.96 H 391.03" /><path
         id="path294"
         style="fill:none;stroke:#000000;stroke-width:0.80000001;stroke-linecap:square;stroke-linejoin:miter;stroke-miterlimit:10;stroke-dasharray:none;stroke-opacity:1"
         d="M 44.57,333.03532 H 391.03" /><path
         id="path296"
         style="fill:#000000;fill-opacity:1;fill-rule:nonzero;stroke:#000000;stroke-width:0.80000001;stroke-linecap:butt;stroke-linejoin:round;stroke-miterlimit:10;stroke-dasharray:none;stroke-opacity:1"
         d="m 391.03,54.789382 h 3.5" /><text
         id="text300"
         style="font-variant:normal;font-weight:normal;font-size:10px;font-family:'DejaVu Sans';-inkscape-font-specification:DejaVuSans;writing-mode:lr-tb;fill:#1f77b4;fill-opacity:1;fill-rule:nonzero;stroke:none"
         transform="matrix(1,0,0,-1,398.03,50.992507)"><tspan
           id="tspan298"
           y="0"
           x="0">0</tspan></text>
<path
         id="path302"
         style="fill:#000000;fill-opacity:1;fill-rule:nonzero;stroke:#000000;stroke-width:0.80000001;stroke-linecap:butt;stroke-linejoin:round;stroke-miterlimit:10;stroke-dasharray:none;stroke-opacity:1"
         d="m 391.03,97.032986 h 3.5" /><text
         id="text306"
         style="font-variant:normal;font-weight:normal;font-size:10px;font-family:'DejaVu Sans';-inkscape-font-specification:DejaVuSans;writing-mode:lr-tb;fill:#1f77b4;fill-opacity:1;fill-rule:nonzero;stroke:none"
         transform="matrix(1,0,0,-1,398.03,93.236111)"><tspan
           id="tspan304"
           y="0"
           x="0 6.3600001 12.72 19.08 25.440001">20000</tspan></text>
<path
         id="path308"
         style="fill:#000000;fill-opacity:1;fill-rule:nonzero;stroke:#000000;stroke-width:0.80000001;stroke-linecap:butt;stroke-linejoin:round;stroke-miterlimit:10;stroke-dasharray:none;stroke-opacity:1"
         d="m 391.03,139.27659 h 3.5" /><text
         id="text312"
         style="font-variant:normal;font-weight:normal;font-size:10px;font-family:'DejaVu Sans';-inkscape-font-specification:DejaVuSans;writing-mode:lr-tb;fill:#1f77b4;fill-opacity:1;fill-rule:nonzero;stroke:none"
         transform="matrix(1,0,0,-1,398.03,135.47971)"><tspan
           id="tspan310"
           y="0"
           x="0 6.3600001 12.72 19.08 25.440001">40000</tspan></text>
<path
         id="path314"
         style="fill:#000000;fill-opacity:1;fill-rule:nonzero;stroke:#000000;stroke-width:0.80000001;stroke-linecap:butt;stroke-linejoin:round;stroke-miterlimit:10;stroke-dasharray:none;stroke-opacity:1"
         d="m 391.03,181.52019 h 3.5" /><text
         id="text318"
         style="font-variant:normal;font-weight:normal;font-size:10px;font-family:'DejaVu Sans';-inkscape-font-specification:DejaVuSans;writing-mode:lr-tb;fill:#1f77b4;fill-opacity:1;fill-rule:nonzero;stroke:none"
         transform="matrix(1,0,0,-1,398.03,177.72332)"><tspan
           id="tspan316"
           y="0"
           x="0 6.3600001 12.72 19.08 25.440001">60000</tspan></text>
<path
         id="path320"
         style="fill:#000000;fill-opacity:1;fill-rule:nonzero;stroke:#000000;stroke-width:0.80000001;stroke-linecap:butt;stroke-linejoin:round;stroke-miterlimit:10;stroke-dasharray:none;stroke-opacity:1"
         d="m 391.03,223.7638 h 3.5" /><text
         id="text324"
         style="font-variant:normal;font-weight:normal;font-size:10px;font-family:'DejaVu Sans';-inkscape-font-specification:DejaVuSans;writing-mode:lr-tb;fill:#1f77b4;fill-opacity:1;fill-rule:nonzero;stroke:none"
         transform="matrix(1,0,0,-1,398.03,219.96692)"><tspan
           id="tspan322"
           y="0"
           x="0 6.3600001 12.72 19.08 25.440001">80000</tspan></text>
<path
         id="path326"
         style="fill:#000000;fill-opacity:1;fill-rule:nonzero;stroke:#000000;stroke-width:0.80000001;stroke-linecap:butt;stroke-linejoin:round;stroke-miterlimit:10;stroke-dasharray:none;stroke-opacity:1"
         d="m 391.03,266.0074 h 3.5" /><text
         id="text330"
         style="font-variant:normal;font-weight:normal;font-size:10px;font-family:'DejaVu Sans';-inkscape-font-specification:DejaVuSans;writing-mode:lr-tb;fill:#1f77b4;fill-opacity:1;fill-rule:nonzero;stroke:none"
         transform="matrix(1,0,0,-1,398.03,262.21052)"><tspan
           id="tspan328"
           y="0"
           x="0 6.3600001 12.72 19.08 25.440001 31.799999">100000</tspan></text>
<path
         id="path332"
         style="fill:#000000;fill-opacity:1;fill-rule:nonzero;stroke:#000000;stroke-width:0.80000001;stroke-linecap:butt;stroke-linejoin:round;stroke-miterlimit:10;stroke-dasharray:none;stroke-opacity:1"
         d="m 391.03,308.251 h 3.5" /><text
         id="text336"
         style="font-variant:normal;font-weight:normal;font-size:10px;font-family:'DejaVu Sans';-inkscape-font-specification:DejaVuSans;writing-mode:lr-tb;fill:#1f77b4;fill-opacity:1;fill-rule:nonzero;stroke:none"
         transform="matrix(1,0,0,-1,398.03,304.45413)"><tspan
           id="tspan334"
           y="0"
           x="0 6.3600001 12.72 19.08 25.440001 31.799999">120000</tspan></text>
<text
         id="text340"
         style="font-variant:normal;font-weight:normal;font-size:10px;font-family:'DejaVu Sans';-inkscape-font-specification:DejaVuSans;writing-mode:lr-tb;fill:#1f77b4;fill-opacity:1;fill-rule:nonzero;stroke:none"
         transform="matrix(0,1,1,0,447.78,164.3961)"><tspan
           id="tspan338"
           y="0"
           x="0 7.52 13.65 23.389999 26.57 34.27 37.049999 42.259998">Ham Dist</tspan></text>
</g><g
       id="g342"><g
         clip-path="url(#clipPath348)"
         id="g344"><path
           id="path350"
           style="fill:none;stroke:#1f77b4;stroke-width:1.5;stroke-linecap:square;stroke-linejoin:round;stroke-miterlimit:10;stroke-dasharray:none;stroke-opacity:1"
           d="m 60.318182,319.80463 0.99672,-56.843 0.996721,37.32645 0.99672,-52.66087 0.99672,-41.36916 0.996721,27.17531 0.99672,-28.09622 0.99672,-23.67754 0.996721,-19.96011 0.99672,28.42572 0.996721,-20.12907 0.99672,-15.14856 0.99672,-13.15888 0.996721,-11.43112 0.99672,23.00587 0.99672,-11.21146 0.996721,-9.93569 0.99672,-8.81202 1.993441,-13.63623 0.99672,18.9716 0.996721,-7.7517 1.99344,-12.07322 0.996721,-5.18329 1.99344,-8.119224 0.996721,15.220374 1.99344,-9.28937 1.993441,-6.949075 1.993441,-5.931002 0.99672,-2.627552 0.996721,12.098568 1.99344,-5.707111 1.993441,-4.95095 1.993444,-4.308848 1.99344,-3.734334 0.99672,-1.448956 0.99672,9.665337 1.99344,-3.742784 1.99344,-3.316122 1.99344,-2.94438 1.99344,-2.610654 2.99016,-2.847219 0.99672,7.519361 2.99016,-3.501994 2.99017,-3.011969 2.99016,-2.589533 2.99016,-2.226238 0.99672,-0.536494 0.99672,5.850739 2.99016,-2.162872 2.99016,-1.913636 2.99016,-1.698192 3.98688,-1.964328 2.99016,-1.279981 0.99672,4.317296 2.99016,-1.630603 3.98689,-1.884065 4.9836,-1.512321 4.9836,-1.296878 1.99344,-0.468904 0.99672,3.375264 4.9836,-1.529219 4.9836,-1.309552 5.98033,-1.330673 5.98032,-1.115231 0.99672,2.530392 5.98032,-1.347571 5.98032,-1.127904 7.97377,-1.212392 0.99672,-0.130955 0.99672,1.896738 5.98032,-1.030744 7.97376,-1.111007 6.97705,-0.773058 0.99672,1.410936 7.97376,-1.005397 6.97704,-0.705468 5.98032,-0.494251 0.99672,1.043417 9.96721,-0.92091 9.9672,-0.688571 0.99672,0.798404 12.95737,-0.887116 6.97704,-0.354846 0.99672,0.587186 10.96392,-0.595634 7.97377,-0.308379 0.99672,0.430885 10.96392,-0.452007 7.97376,-0.240788 0.99672,0.3295 13.95409,-0.422436 2.99016,-0.07604 0.99672,0.249238 15.94753,-0.388641 0.99672,0.177423 1.99344,-0.05069 v 0" /></g></g><g
       id="g352"><path
         id="path354"
         style="fill:none;stroke:#000000;stroke-width:0.80000001;stroke-linecap:square;stroke-linejoin:miter;stroke-miterlimit:10;stroke-dasharray:none;stroke-opacity:1"
         d="M 44.57,41.96 V 333.03532" /><path
         id="path356"
         style="fill:none;stroke:#000000;stroke-width:0.80000001;stroke-linecap:square;stroke-linejoin:miter;stroke-miterlimit:10;stroke-dasharray:none;stroke-opacity:1"
         d="M 391.03,41.96 V 333.03532" /><path
         id="path358"
         style="fill:none;stroke:#000000;stroke-width:0.80000001;stroke-linecap:square;stroke-linejoin:miter;stroke-miterlimit:10;stroke-dasharray:none;stroke-opacity:1"
         d="M 44.57,41.96 H 391.03" /><path
         id="path360"
         style="fill:none;stroke:#000000;stroke-width:0.80000001;stroke-linecap:square;stroke-linejoin:miter;stroke-miterlimit:10;stroke-dasharray:none;stroke-opacity:1"
         d="M 44.57,333.03532 H 391.03" /></g></g></svg>